<svg width="32" height="32" viewBox="0 0 32 32" fill="none" xmlns="http://www.w3.org/2000/svg">
<path d="M13.2062 16.45C10.9956 14.7966 9.41873 12.9779 8.55741 11.9556C8.29074 11.6392 8.20363 11.4072 8.15119 10.9992C7.97164 9.60181 7.88186 8.90313 8.29163 8.45157C8.70141 8 9.42584 8 10.8747 8H21.1253C22.5742 8 23.2986 8 23.7084 8.45068C24.1181 8.90224 24.0284 9.60092 23.8488 10.9983C23.7955 11.4063 23.7084 11.6383 23.4426 11.9548C22.5804 12.9788 21.0008 14.801 18.7849 16.4571C18.6824 16.5368 18.5977 16.6371 18.5362 16.7514C18.4746 16.8657 18.4376 16.9916 18.4275 17.1211C18.208 19.5487 18.0053 20.8785 17.8791 21.5505C17.6755 22.6368 16.1369 23.2901 15.312 23.8724C14.8213 24.219 14.2258 23.8066 14.1627 23.2697C13.9267 21.2239 13.7269 19.174 13.5636 17.1211C13.5544 16.9904 13.5179 16.8631 13.4563 16.7475C13.3948 16.6319 13.3096 16.5305 13.2062 16.45Z" stroke="white" stroke-width="1.5" stroke-linecap="round" stroke-linejoin="round"/>
</svg>
