<svg width="32" height="32" viewBox="0 0 32 32" fill="none" xmlns="http://www.w3.org/2000/svg">
<path d="M19.7402 6.5L20.1961 6.93605C20.6046 7.32555 20.808 7.51935 20.7358 7.68465C20.6645 7.84995 20.3757 7.84995 19.799 7.84995H12.7377C9.81645 7.84995 7.3417 9.67775 6.5 12.2M12.2199 25.5L11.8039 25.101C11.3954 24.7086 11.192 24.5139 11.2642 24.3477C11.3355 24.1814 11.6243 24.1814 12.2 24.1814H19.2604C22.1845 24.1814 24.6611 22.3403 25.5 19.8M18.85 13.625H21.6497C22.2387 13.625 22.5331 13.625 22.612 13.815C22.6908 14.005 22.4904 14.233 22.0895 14.689L19.7857 17.311C19.3848 17.767 19.1844 17.995 19.2633 18.185C19.3421 18.375 19.6357 18.375 20.2247 18.375H22.65M7.45 18.375L9.11725 14.6586C9.426 13.9699 9.5799 13.625 9.825 13.625C10.0701 13.625 10.224 13.9699 10.5327 14.6586L12.2 18.375M15.05 16H16" stroke="white" stroke-width="1.5" stroke-linecap="round" stroke-linejoin="round"/>
</svg>
